<svg version="1.1" id="Layer_1" xmlns="http://www.w3.org/2000/svg" xmlns:xlink="http://www.w3.org/1999/xlink" x="0px" y="0px"
	 width="100%" viewBox="0 0 600 600" enable-background="new 0 0 600 600" xml:space="preserve">
<path fill="#FFFFFF" opacity="1.000000" stroke="none"
	d="
M346.650818,353.244904 
	C357.678680,359.641815 368.383392,365.840546 379.108032,372.004639 
	C388.444733,377.371002 397.837219,382.641846 407.104340,388.125183 
	C408.083496,388.704559 408.919495,390.429291 408.922241,391.624695 
	C409.015442,432.268555 408.999725,472.912689 408.999725,513.303284 
	C393.895813,522.074158 379.043915,530.729431 364.161285,539.331482 
	C352.194000,546.248474 340.205353,553.128906 328.196045,559.972595 
	C320.102234,564.585083 312.005615,569.198547 303.784637,573.575806 
	C302.399628,574.313293 299.988373,574.549255 298.708527,573.836609 
	C286.631195,567.111694 274.707794,560.110901 262.717651,553.228699 
	C249.761154,545.791809 236.784332,538.390198 223.809418,530.985474 
	C214.321167,525.570557 204.756378,520.283691 195.401581,514.647888 
	C194.087112,513.855957 193.103867,511.401215 193.098495,509.712585 
	C192.971634,469.732544 193.000031,429.752014 193.000031,389.575684 
	C215.948135,376.391876 238.907471,363.201141 261.867279,350.011261 
	C274.127625,342.968018 286.338867,335.835754 298.716339,329.004730 
	C300.168182,328.203522 302.901611,328.410950 304.423828,329.258759 
	C316.496948,335.983398 328.415100,342.985962 340.395721,349.877197 
	C342.338135,350.994446 344.354279,351.983429 346.650818,353.244904 
z"/>
<path fill="#FFFFFF" opacity="1.000000" stroke="none" 
	d="
M381.316406,301.740479 
	C365.643463,292.815674 350.230286,284.195190 334.971466,275.309662 
	C333.208191,274.282837 331.175537,271.788513 331.165771,269.964386 
	C330.949280,229.472595 331.000061,188.979385 331.000061,148.697357 
	C348.447540,138.575348 365.656952,128.533813 382.923859,118.592140 
	C397.270691,110.331718 411.684113,102.186996 426.070496,93.995277 
	C429.006561,92.323441 432.238037,91.020203 434.821167,88.917770 
	C437.853027,86.450104 440.272949,87.393509 443.053314,88.990494 
	C469.811584,104.359947 496.596741,119.682610 523.357178,135.048264 
	C530.053101,138.892990 536.761292,142.727692 543.288879,146.844452 
	C544.599731,147.671173 545.882812,149.753632 545.888184,151.261688 
	C546.029236,190.759674 546.029358,230.258408 545.887268,269.756409 
	C545.881897,271.259155 544.587830,273.365417 543.271973,274.160522 
	C531.161987,281.477570 518.941650,288.613953 506.700623,295.711792 
	C489.460205,305.708466 472.178406,315.633881 454.906097,325.575500 
	C450.310425,328.220642 445.787170,331.029327 441.009949,333.298157 
	C439.588379,333.973297 437.105408,333.619354 435.635345,332.796356 
	C423.571136,326.042358 411.640930,319.049377 399.649689,312.164368 
	C393.662445,308.726654 387.632690,305.363007 381.316406,301.740479 
z"/>
<path fill="#FFFFFF" opacity="1.000000" stroke="none" 
	d="
M111.352364,116.243454 
	C124.537384,108.763527 137.414230,101.510216 150.268539,94.217125 
	C153.206879,92.550018 156.310501,91.046204 158.912369,88.941078 
	C164.111526,84.734535 167.788025,89.289734 171.372559,91.252388 
	C187.158508,99.895729 202.674667,109.032990 218.265427,118.031395 
	C235.115555,127.756660 251.940018,137.526352 268.775208,147.277512 
	C269.464294,147.676636 270.148285,148.084549 270.999939,148.585602 
	C270.999939,188.974319 271.029755,229.464203 270.880219,269.953430 
	C270.874786,271.422852 269.452179,273.473877 268.108124,274.263916 
	C246.629730,286.889191 225.087845,299.407593 203.492340,311.832031 
	C191.521088,318.719421 179.150955,324.956757 167.496796,332.334076 
	C161.499115,336.130768 158.150116,331.648682 154.486313,329.614563 
	C134.387802,318.456085 114.580322,306.772858 94.687157,295.245239 
	C82.588226,288.234192 70.480507,281.236359 58.483322,274.054535 
	C57.277088,273.332458 56.106834,271.377777 56.102398,269.991302 
	C55.975464,230.329636 55.955921,190.667282 56.154266,151.006195 
	C56.162579,149.343643 58.073418,147.085144 59.700184,146.129425 
	C76.741432,136.117844 93.905754,126.315727 111.352364,116.243454 
z"/>
</svg>