<?xml version="1.0" standalone="no"?>
<!DOCTYPE svg PUBLIC "-//W3C//DTD SVG 20010904//EN"
 "http://www.w3.org/TR/2001/REC-SVG-20010904/DTD/svg10.dtd">
<svg version="1.0" xmlns="http://www.w3.org/2000/svg"
 width="700.000000pt" height="700.000000pt" viewBox="0 0 700.000000 700.000000"
 preserveAspectRatio="xMidYMid meet">
<metadata>
Created by potrace 1.14, written by Peter Selinger 2001-2017
</metadata>
<g transform="translate(0.000000,700.000000) scale(0.100000,-0.100000)"
fill="#000000" stroke="none">
<path d="M1480 6951 c-25 -15 -306 -178 -625 -361 -319 -183 -593 -341 -610
-351 -16 -10 -48 -27 -70 -39 -22 -12 -70 -40 -108 -62 l-67 -39 2 -881 3
-881 45 -26 c38 -22 334 -192 443 -255 18 -10 124 -71 237 -136 113 -65 220
-126 237 -136 18 -11 152 -88 299 -172 l265 -152 107 61 c59 33 114 64 122 69
8 6 303 175 655 376 352 202 642 370 645 375 7 10 6 1756 0 1762 -3 2 -45 27
-95 54 -49 28 -173 99 -275 158 -102 59 -210 121 -240 137 -30 17 -59 34 -65
38 -5 4 -30 19 -55 32 -86 48 -455 260 -480 276 -14 9 -27 17 -30 17 -3 0 -48
26 -100 56 -96 57 -189 109 -193 109 -1 0 -22 -13 -47 -29z"/>
<path d="M5076 6754 c-214 -123 -391 -224 -392 -224 -1 0 -38 -21 -81 -46 -43
-26 -204 -119 -358 -207 -154 -88 -287 -166 -295 -173 -13 -11 -15 -120 -15
-888 0 -481 2 -876 5 -879 7 -5 66 -40 120 -69 25 -14 86 -49 135 -78 50 -29
108 -62 130 -75 22 -12 175 -100 340 -195 165 -95 413 -237 552 -317 l252
-144 238 137 c131 75 360 207 508 292 149 86 306 176 350 201 44 25 89 51 100
58 11 7 27 15 35 19 8 4 49 28 90 52 41 25 100 58 130 75 30 16 61 34 68 40 9
7 12 193 10 889 l-3 880 -144 84 c-79 46 -145 84 -147 84 -2 0 -41 22 -86 49
-46 26 -191 110 -323 186 -241 139 -260 149 -370 212 -33 19 -67 38 -75 43
-33 21 -316 183 -349 200 l-36 18 -389 -224z"/>
<path d="M3174 3351 c-181 -103 -480 -275 -664 -381 -184 -106 -360 -206 -390
-223 -30 -17 -75 -43 -100 -57 l-45 -26 -3 -881 -2 -881 82 -48 c369 -213 869
-500 893 -512 17 -9 53 -31 82 -49 29 -18 54 -33 56 -33 3 0 60 -32 128 -71
68 -40 162 -94 208 -120 l84 -49 246 141 c252 145 790 454 940 541 46 26 86
48 88 48 2 0 29 16 59 35 30 19 56 35 58 35 2 0 35 18 72 40 l69 40 0 876 c0
482 -2 879 -5 884 -3 4 -21 17 -40 27 -19 11 -111 64 -205 118 -197 113 -766
440 -810 465 -215 122 -442 254 -449 261 -6 5 -13 9 -17 9 -4 0 -154 -85 -335
-189z"/>
</g>
</svg>
